<?xml version="1.0" standalone="no"?>
<!DOCTYPE svg PUBLIC "-//W3C//DTD SVG 20010904//EN"
 "http://www.w3.org/TR/2001/REC-SVG-20010904/DTD/svg10.dtd">
<svg version="1.0" xmlns="http://www.w3.org/2000/svg"
 width="700.000000pt" height="700.000000pt" viewBox="0 0 700.000000 700.000000"
 preserveAspectRatio="xMidYMid meet">
<metadata>
Created by potrace 1.11, written by Peter Selinger 2001-2013
</metadata>
<g transform="translate(0.000000,700.000000) scale(0.100000,-0.100000)"
fill="#000000" stroke="none">
<path d="M3308 6345 c-1 -1 -37 -5 -78 -9 -41 -3 -86 -8 -99 -11 -12 -2 -42
-6 -65 -9 -87 -10 -291 -58 -413 -97 -342 -109 -636 -266 -908 -484 -569 -455
-935 -1108 -1030 -1835 -19 -144 -25 -439 -12 -580 10 -110 16 -162 22 -190 2
-14 7 -43 10 -65 5 -35 47 -224 59 -265 3 -8 14 -44 24 -80 34 -112 92 -261
153 -385 70 -145 121 -239 132 -243 4 -2 7 -8 7 -14 0 -5 11 -24 25 -42 14
-18 22 -36 18 -39 -3 -4 -1 -7 5 -7 6 0 18 -13 27 -29 8 -16 20 -35 27 -43 39
-40 87 -112 81 -121 -3 -6 -1 -7 5 -3 13 8 44 -33 35 -47 -3 -6 -1 -7 4 -4 12
8 70 -60 65 -75 -1 -5 1 -7 6 -4 10 6 93 -80 84 -88 -3 -3 1 -6 10 -6 19 0 49
-32 52 -56 2 -10 9 -20 17 -22 11 -3 11 -1 -1 7 -11 8 -11 11 -2 11 7 0 17
-10 22 -22 5 -13 9 -19 9 -14 1 12 51 -34 51 -46 0 -5 -5 -6 -12 -2 -7 5 -8 3
-3 -5 5 -9 11 -9 17 -3 7 7 18 3 34 -11 18 -16 21 -23 12 -30 -8 -5 -5 -6 10
-2 16 5 22 2 22 -10 0 -9 4 -13 10 -10 5 3 10 1 10 -4 0 -6 6 -11 13 -11 6 0
27 -14 44 -31 18 -16 33 -27 33 -23 0 3 7 1 15 -6 11 -9 12 -16 5 -26 -9 -10
-6 -11 10 -7 14 4 29 -2 45 -17 14 -13 25 -19 25 -14 0 5 5 1 11 -8 5 -10 17
-18 24 -18 8 0 15 -4 15 -10 0 -5 -3 -10 -6 -10 -13 0 -50 24 -65 43 -12 15
-18 17 -24 7 -5 -9 -4 -11 3 -6 7 4 12 3 12 -3 0 -5 21 -23 46 -40 34 -24 49
-29 63 -21 13 7 23 4 38 -10 12 -10 24 -16 27 -13 3 4 6 1 6 -5 0 -7 3 -11 8
-10 19 4 39 -15 35 -33 -6 -21 11 -26 23 -7 5 7 3 8 -6 3 -9 -5 -11 -4 -6 3 8
13 46 -5 46 -21 0 -4 4 -6 9 -2 5 3 16 -1 24 -9 8 -8 17 -12 21 -9 8 9 37 -18
30 -28 -3 -5 -10 -7 -15 -4 -5 4 -9 1 -9 -5 0 -7 6 -10 13 -7 6 2 24 -5 39
-15 16 -11 28 -16 28 -11 0 4 -9 14 -20 21 -11 7 -20 18 -20 25 1 7 7 4 15 -7
8 -10 19 -15 26 -10 8 5 10 3 4 -6 -5 -8 -3 -11 6 -8 26 9 51 -11 43 -35 -6
-19 -5 -20 10 -8 14 12 16 11 16 -3 0 -10 4 -15 10 -11 5 3 7 13 4 23 -5 14
-4 15 5 2 5 -8 18 -15 27 -15 10 0 19 -7 21 -15 3 -10 2 -11 -4 -4 -4 6 -16
11 -25 11 -32 0 -19 -12 28 -26 34 -10 48 -11 57 -2 8 8 7 11 -3 11 -7 0 -11
3 -7 6 3 3 11 3 17 -1 8 -5 8 -11 -1 -21 -6 -8 -8 -18 -4 -22 4 -4 10 -1 12 6
3 6 9 12 14 12 6 0 8 -4 4 -9 -3 -6 4 -15 15 -21 11 -6 20 -7 20 -3 0 4 5 2
12 -5 16 -16 31 -15 22 1 -4 6 1 4 12 -5 11 -10 29 -19 40 -21 10 -1 24 -5 29
-8 10 -6 63 -21 80 -23 6 -1 27 -7 49 -15 32 -11 40 -11 47 0 7 11 9 11 9 -2
0 -11 8 -15 25 -14 14 2 25 -2 25 -8 0 -7 5 -5 10 3 6 10 10 11 10 3 0 -7 11
-13 24 -13 14 0 36 -4 50 -10 18 -7 26 -6 26 1 0 8 4 8 14 0 8 -7 43 -13 79
-15 36 -2 69 -6 74 -8 14 -8 102 -12 263 -11 212 0 271 4 263 17 -4 8 -2 8 6
0 8 -7 27 -8 54 -4 23 5 65 11 92 14 77 10 109 17 124 30 10 7 13 7 8 0 -7
-11 76 5 88 18 4 4 14 4 23 1 8 -4 13 -2 10 3 -3 5 10 10 31 10 20 1 64 12 97
23 34 12 70 23 80 25 11 3 32 9 48 15 22 9 26 15 18 23 -7 7 -12 17 -12 22 0
6 7 1 15 -12 13 -18 19 -20 35 -10 10 7 16 17 12 23 -3 6 0 6 9 -1 11 -9 26
-6 62 11 30 14 43 25 35 29 -7 3 -1 4 15 1 15 -3 27 -3 27 -1 0 3 -12 13 -27
21 -16 9 -20 14 -10 11 11 -4 31 3 47 14 17 12 35 17 46 13 12 -4 15 -3 10 5
-5 8 -1 10 10 5 10 -3 15 -2 12 3 -3 5 0 15 8 22 8 7 14 9 14 4 0 -13 -23 -37
-55 -57 -25 -16 -28 -16 -16 -2 18 22 2 21 -28 -2 -20 -16 -21 -19 -7 -24 11
-4 15 -3 11 4 -4 6 -1 9 6 7 19 -4 79 22 79 34 0 5 4 7 8 4 13 -8 39 13 26 22
-6 4 -4 13 8 25 10 9 18 14 18 10 0 -4 7 2 15 13 8 10 15 15 15 10 0 -5 9 -1
20 9 11 10 20 14 20 9 0 -5 7 0 15 10 11 14 15 16 15 5 1 -10 3 -9 11 4 8 14
14 15 30 6 16 -8 26 -7 45 6 13 8 24 21 24 28 0 8 -4 7 -10 -3 -9 -13 -10 -13
-11 0 0 9 -4 7 -11 -8 -12 -23 -23 -28 -33 -13 -6 11 34 43 46 36 4 -3 10 2
13 11 3 8 10 13 15 10 5 -4 11 -3 13 1 4 11 85 73 94 73 4 0 26 16 49 35 39
32 55 35 55 12 0 -5 -7 -7 -15 -4 -8 4 -17 2 -19 -2 -3 -5 5 -8 17 -7 15 1 22
7 22 21 0 31 14 48 30 35 11 -9 12 -7 9 8 -3 10 2 24 10 31 9 8 16 10 16 7 0
-4 13 7 29 25 19 20 35 30 45 26 9 -4 16 -2 16 3 0 6 -4 10 -10 10 -5 0 13 21
40 46 27 25 54 43 59 39 6 -3 9 0 5 8 -3 8 14 31 41 56 25 23 45 44 45 46 0
13 44 53 53 48 6 -4 8 0 4 10 -4 11 -1 17 9 17 8 0 13 4 10 8 -2 4 12 26 32
48 54 58 230 322 269 401 8 18 20 30 26 26 5 -3 7 -1 3 5 -3 6 16 57 43 114
27 57 59 128 71 158 11 30 25 64 30 75 30 69 109 354 125 455 6 36 15 89 21
124 2 11 6 56 10 100 3 45 8 84 10 88 5 9 4 384 -1 423 -2 17 -7 61 -10 99 -4
38 -8 77 -10 85 -1 9 -6 36 -10 61 -4 25 -9 54 -12 65 -2 11 -6 31 -9 45 -103
513 -372 1014 -747 1392 -111 112 -158 155 -227 208 -24 19 -51 41 -58 48 -27
24 -199 141 -277 187 -174 103 -385 198 -563 255 -107 35 -310 86 -375 95 -23
3 -49 8 -57 10 -8 2 -38 7 -66 10 -27 3 -75 8 -105 11 -57 7 -445 15 -451 9z
m-221 -760 c0 -8 -4 -12 -9 -9 -5 3 -6 10 -3 15 9 13 12 11 12 -6z m623 4
c146 -16 165 -19 190 -25 14 -3 44 -10 68 -15 24 -5 73 -18 109 -29 50 -15 69
-17 80 -9 11 9 12 9 7 -5 -4 -12 0 -16 16 -16 14 0 19 4 14 13 -4 7 -3 9 2 4
5 -5 9 -14 9 -20 0 -7 12 -13 28 -15 15 -2 27 -8 27 -13 0 -6 9 -5 21 2 16 8
20 8 15 0 -8 -12 53 -43 66 -35 5 3 8 0 8 -6 0 -6 5 -8 10 -5 6 3 10 1 10 -5
0 -6 5 -8 10 -5 6 3 10 1 10 -4 0 -6 9 -11 20 -11 11 0 20 -4 20 -8 0 -5 11
-14 25 -20 20 -9 26 -8 34 6 7 11 11 12 11 4 0 -7 5 -10 12 -6 7 4 8 3 4 -5
-4 -6 -12 -9 -17 -6 -5 4 -9 2 -9 -3 0 -17 13 -22 28 -9 13 10 15 9 9 -5 -8
-22 31 -36 45 -17 7 10 8 8 3 -7 -4 -14 0 -24 9 -27 11 -4 13 -1 10 11 -3 9 2
4 11 -11 16 -28 42 -32 37 -6 -1 8 7 3 18 -10 11 -12 18 -27 15 -31 -3 -5 17
-24 45 -44 32 -23 52 -32 56 -24 5 7 2 8 -7 3 -8 -5 -11 -5 -7 -1 9 11 23 8
23 -6 0 -6 6 -13 14 -16 9 -3 11 0 6 9 -5 8 -4 10 0 6 14 -12 15 -38 2 -31 -7
3 -3 -2 8 -10 11 -9 35 -30 52 -47 18 -17 39 -29 47 -26 15 6 36 -11 36 -27 0
-6 -7 -2 -15 8 -8 11 -15 15 -15 9 0 -15 27 -36 38 -29 5 3 17 -3 27 -14 10
-11 14 -20 9 -20 -5 0 3 -8 18 -18 16 -11 24 -22 19 -28 -5 -5 6 -23 26 -43
22 -21 31 -26 24 -13 -6 12 -21 28 -33 36 -12 9 -17 16 -11 16 7 0 35 -28 63
-62 48 -61 63 -87 38 -72 -7 4 -8 3 -4 -4 4 -6 14 -8 23 -5 12 5 15 2 11 -8
-6 -15 16 -54 30 -54 4 0 6 -5 6 -12 -1 -7 3 -11 8 -10 6 1 13 -4 16 -12 3 -9
0 -11 -9 -6 -8 5 -11 4 -6 -1 5 -5 13 -9 18 -9 5 0 10 -4 11 -10 0 -5 7 -14
14 -20 7 -5 14 -17 16 -25 2 -8 10 -21 18 -28 13 -12 13 -13 0 -7 -10 4 -9 2
2 -8 10 -8 15 -17 11 -20 -3 -4 0 -7 7 -7 7 0 10 -3 7 -7 -4 -3 1 -12 11 -20
10 -9 11 -12 2 -7 -12 6 -12 4 1 -12 18 -21 33 -55 31 -66 -1 -5 2 -8 6 -8 12
0 33 -50 27 -61 -4 -5 -3 -9 2 -9 15 0 49 -91 98 -263 19 -65 37 -134 40 -155
3 -21 7 -47 9 -59 34 -172 36 -439 5 -641 -14 -98 -19 -124 -25 -144 -3 -9 -7
-26 -9 -39 -3 -12 -16 -61 -30 -109 -99 -336 -275 -631 -530 -885 -329 -330
-728 -529 -1205 -600 -93 -14 -325 -20 -445 -11 -323 24 -687 147 -965 327
-546 353 -902 938 -956 1570 -11 128 -12 282 -2 302 6 11 5 17 -2 17 -6 0 -9
4 -6 8 2 4 7 35 11 67 3 33 8 74 11 90 2 17 6 41 8 55 2 14 5 25 6 25 1 0 3 9
5 20 4 25 14 75 18 95 13 66 42 158 48 154 4 -2 6 4 5 13 -2 10 5 24 14 33 10
9 10 11 1 5 -12 -8 -13 -6 -7 10 5 11 11 28 13 37 3 10 9 16 13 13 5 -3 12 0
16 6 5 8 3 9 -6 4 -10 -6 -12 -4 -7 9 4 10 7 22 7 27 0 6 5 7 12 3 6 -4 8 -3
5 3 -8 13 20 85 37 95 6 4 8 8 3 8 -4 0 9 32 28 70 20 39 40 68 46 65 5 -4 9
-3 8 2 -4 22 3 41 21 61 11 12 20 24 20 27 0 3 7 17 17 31 16 24 18 25 25 8 7
-15 7 -14 4 5 -6 31 32 90 45 69 6 -9 8 -5 7 12 -3 21 1 25 22 22 14 -1 21 1
15 5 -20 15 -16 35 5 28 12 -4 20 -2 20 5 0 6 -5 8 -10 5 -6 -3 -10 1 -10 10
0 9 4 14 8 11 5 -3 16 9 26 25 15 26 20 28 34 17 14 -12 14 -10 2 12 l-13 25
23 -20 c14 -11 20 -14 15 -5 -16 25 -13 36 7 37 17 2 18 -1 7 -15 -11 -14 -11
-15 1 -5 20 19 21 43 2 37 -14 -5 -14 -4 1 6 9 6 23 8 30 4 7 -5 6 0 -3 11 -8
10 -10 16 -5 13 6 -3 16 0 23 8 7 8 10 14 7 14 -3 0 11 15 32 32 21 18 41 37
45 43 4 5 13 10 20 10 7 1 12 7 10 13 -2 9 3 10 16 3 20 -11 52 2 33 13 -6 4
-11 2 -11 -4 0 -6 -5 -8 -11 -5 -6 5 -2 13 13 23 13 9 34 26 47 39 14 12 28
20 33 17 4 -3 8 1 8 8 0 17 60 52 61 35 0 -7 5 -3 10 8 5 11 23 28 38 37 27
15 29 15 26 -1 -1 -9 -9 -15 -17 -13 -18 3 -44 -25 -34 -35 4 -4 11 -1 16 7 6
8 10 11 10 6 0 -5 8 -2 18 7 10 10 22 14 26 10 4 -4 5 4 2 19 -3 17 1 31 12
40 9 7 13 8 9 2 -4 -7 0 -17 9 -25 12 -10 18 -9 31 3 8 9 12 21 8 27 -7 13
-25 5 -25 -10 0 -6 5 -7 12 -3 7 5 8 3 3 -5 -5 -9 -10 -10 -18 -2 -7 7 -6 15
3 26 12 14 15 14 30 0 21 -19 30 -19 30 1 0 8 -4 13 -9 9 -5 -3 -13 -1 -16 5
-4 6 -3 9 2 8 4 -1 22 6 40 15 21 11 34 13 38 6 4 -6 4 -13 1 -16 -3 -4 -6 -1
-6 5 0 6 -7 9 -16 5 -13 -5 -13 -8 -2 -15 9 -6 6 -7 -9 -3 -18 5 -22 3 -17 -9
5 -14 9 -14 37 1 18 9 38 23 45 32 8 9 11 11 7 4 -4 -9 1 -10 25 -2 16 6 30
15 30 21 0 6 6 8 14 5 17 -7 28 17 15 30 -6 6 -4 10 5 10 9 0 13 -8 10 -20 -3
-16 -1 -18 8 -9 7 7 20 12 31 12 10 0 16 4 13 9 -3 4 6 7 20 5 18 -2 24 1 20
11 -3 8 0 17 6 21 6 4 8 3 4 -4 -3 -6 -2 -13 3 -16 5 -4 13 -1 16 5 4 5 13 8
21 5 7 -3 16 -1 19 5 4 5 11 7 16 4 5 -4 9 -2 9 4 0 6 7 7 17 4 9 -4 14 -2 10
3 -3 6 4 10 16 11 59 1 60 2 46 21 -11 14 -11 15 1 5 15 -14 64 -18 57 -5 -3
4 17 8 45 9 27 1 55 7 63 13 9 7 15 8 19 1 4 -6 12 -8 20 -5 51 20 373 28 506
13z m657 -135 c-3 -3 -12 -4 -19 -1 -8 3 -5 6 6 6 11 1 17 -2 13 -5z m-1757
-14 c0 -5 -5 -10 -11 -10 -5 0 -7 5 -4 10 3 6 8 10 11 10 2 0 4 -4 4 -10z m60
6 c0 -3 -4 -8 -10 -11 -5 -3 -10 -1 -10 4 0 6 5 11 10 11 6 0 10 -2 10 -4z
m1905 -105 c3 -5 2 -12 -3 -15 -5 -3 -9 1 -9 9 0 17 3 19 12 6z m173 -117 c6
3 14 1 19 -6 17 -29 9 -34 -23 -14 -18 11 -33 27 -34 35 0 11 4 10 13 -4 8
-10 19 -15 25 -11z m122 -97 c0 -7 14 -21 30 -30 27 -16 40 -37 24 -37 -7 0
-74 69 -74 76 0 2 5 4 10 4 6 0 10 -6 10 -13z m-2864 -3974 c-10 -10 -19 5
-10 18 6 11 8 11 12 0 2 -7 1 -15 -2 -18z m2564 -213 c-6 -11 -13 -20 -16 -20
-2 0 0 9 6 20 6 11 13 20 16 20 2 0 0 -9 -6 -20z m-36 -21 c-8 -14 -21 -11
-21 5 0 8 6 12 14 9 7 -3 10 -9 7 -14z m-1909 -39 c3 -5 1 -10 -4 -10 -6 0
-11 5 -11 10 0 6 2 10 4 10 3 0 8 -4 11 -10z m1785 -11 c0 -5 -8 -9 -17 -8
-11 0 -13 3 -5 6 6 2 9 10 6 15 -4 7 -2 8 4 4 7 -4 12 -11 12 -17z m-1730 -13
c-7 -7 -13 -7 -20 0 -6 6 -3 10 10 10 13 0 16 -4 10 -10z m69 -29 c0 -9 -2 -8
-6 1 -2 6 -10 9 -15 6 -7 -4 -8 -2 -4 5 9 13 26 5 25 -12z m1498 -2 c0 -8 -4
-12 -9 -9 -5 3 -6 10 -3 15 9 13 12 11 12 -6z m-27 1 c0 -2 -8 -10 -17 -17
-16 -13 -17 -12 -4 4 13 16 21 21 21 13z m-1365 -26 c10 -11 16 -20 13 -20 -3
0 -13 9 -23 20 -10 11 -16 20 -13 20 3 0 13 -9 23 -20z"/>
<path d="M2433 5335 c0 -8 4 -15 9 -15 4 0 8 4 8 9 0 6 -4 12 -8 15 -5 3 -9
-1 -9 -9z"/>
<path d="M2297 5259 c-10 -6 -15 -14 -12 -20 4 -5 1 -10 -4 -10 -6 -1 -15 -2
-19 -3 -5 0 -22 -13 -40 -28 -22 -18 -27 -28 -18 -31 17 -7 49 26 39 38 -5 4
0 5 10 2 9 -4 17 -2 17 4 0 6 4 8 9 5 5 -3 12 1 15 10 3 8 10 12 16 9 5 -3 10
-1 10 4 0 6 7 11 15 11 8 0 15 4 15 8 0 11 -33 12 -53 1z m-57 -63 c0 -2 -8
-10 -17 -17 -16 -13 -17 -12 -4 4 13 16 21 21 21 13z"/>
<path d="M4670 5255 c0 -8 4 -15 10 -15 5 0 7 7 4 15 -4 8 -8 15 -10 15 -2 0
-4 -7 -4 -15z"/>
<path d="M2140 5120 c-6 -11 -15 -18 -21 -15 -5 4 -23 -7 -39 -24 -31 -30 -38
-51 -19 -51 5 0 8 4 5 9 -3 5 1 12 9 15 8 3 14 11 13 17 -2 6 3 14 11 17 9 3
11 0 7 -9 -4 -8 6 0 22 18 17 17 34 28 38 25 4 -4 4 -1 0 6 -10 16 -14 15 -26
-8z"/>
<path d="M2030 5020 c0 -5 5 -10 11 -10 5 0 7 5 4 10 -3 6 -8 10 -11 10 -2 0
-4 -4 -4 -10z"/>
<path d="M4986 4995 c4 -8 11 -15 16 -15 6 0 5 6 -2 15 -7 8 -14 15 -16 15 -2
0 -1 -7 2 -15z"/>
<path d="M1910 4890 c-6 -11 -9 -20 -8 -20 2 0 11 9 21 20 9 11 13 20 7 20 -5
0 -14 -9 -20 -20z"/>
<path d="M5130 4830 c6 -11 13 -20 16 -20 2 0 0 9 -6 20 -6 11 -13 20 -16 20
-2 0 0 -9 6 -20z"/>
<path d="M1790 4739 c0 -5 5 -7 10 -4 6 3 10 8 10 11 0 2 -4 4 -10 4 -5 0 -10
-5 -10 -11z"/>
<path d="M1703 4609 c-2 -23 3 -25 10 -4 4 8 3 16 -1 19 -4 3 -9 -4 -9 -15z"/>
<path d="M1670 4559 c0 -5 5 -7 10 -4 6 3 10 8 10 11 0 2 -4 4 -10 4 -5 0 -10
-5 -10 -11z"/>
<path d="M1595 4419 c-4 -6 -5 -12 -2 -15 2 -3 7 2 10 11 7 17 1 20 -8 4z"/>
<path d="M5540 1606 c7 -7 13 -7 20 0 6 6 3 10 -10 10 -13 0 -16 -4 -10 -10z"/>
<path d="M5510 1579 c0 -5 5 -7 10 -4 6 3 10 8 10 11 0 2 -4 4 -10 4 -5 0 -10
-5 -10 -11z"/>
<path d="M1515 1541 c-3 -5 -2 -12 3 -15 5 -3 9 1 9 9 0 17 -3 19 -12 6z"/>
<path d="M5435 1509 c-4 -6 -5 -12 -2 -15 2 -3 7 2 10 11 7 17 1 20 -8 4z"/>
<path d="M5406 1485 c-9 -26 -7 -32 5 -12 6 10 9 21 6 23 -2 3 -7 -2 -11 -11z"/>
<path d="M5352 1441 c2 -7 7 -12 11 -12 12 1 9 15 -3 20 -7 2 -11 -2 -8 -8z"/>
<path d="M5327 1403 c3 -7 6 -13 8 -13 2 0 5 6 8 13 3 8 -1 14 -8 14 -7 0 -11
-6 -8 -14z"/>
<path d="M5284 1389 c-3 -6 -2 -15 3 -20 5 -5 9 -1 9 11 0 23 -2 24 -12 9z"/>
<path d="M5250 1340 c0 -5 5 -10 11 -10 5 0 7 5 4 10 -3 6 -8 10 -11 10 -2 0
-4 -4 -4 -10z"/>
<path d="M1773 1315 c0 -8 4 -15 9 -15 4 0 8 4 8 9 0 6 -4 12 -8 15 -5 3 -9
-1 -9 -9z"/>
<path d="M1796 1292 c-3 -5 1 -9 9 -9 8 0 12 4 9 9 -3 4 -7 8 -9 8 -2 0 -6 -4
-9 -8z"/>
<path d="M5152 1270 c-12 -10 -18 -21 -13 -24 5 -3 12 1 15 10 3 8 11 12 17 8
8 -5 9 -3 4 6 -6 10 -4 12 8 7 9 -3 18 -3 21 1 10 16 -30 10 -52 -8z"/>
<path d="M5094 1238 c-19 -22 -19 -22 0 -8 18 14 19 13 13 -4 -7 -16 -5 -17 9
-5 10 8 12 15 5 17 -6 2 -9 8 -5 13 10 17 -3 9 -22 -13z"/>
<path d="M5053 1201 c-3 -13 -12 -18 -24 -16 -21 4 -24 -3 -9 -25 8 -13 10
-12 10 3 0 9 3 16 8 16 21 -4 31 3 26 16 -5 11 -2 13 10 9 9 -3 16 -4 16 -1 0
3 -7 8 -16 11 -10 4 -18 0 -21 -13z"/>
<path d="M2026 1141 c-3 -5 5 -16 19 -25 15 -10 25 -12 25 -5 0 6 -9 13 -20
16 -11 3 -17 9 -14 14 3 5 3 9 0 9 -3 0 -7 -4 -10 -9z"/>
<path d="M4925 1120 c3 -5 1 -10 -4 -10 -20 0 -26 -3 -38 -19 -10 -13 -12 -13
-13 -2 0 11 -4 11 -18 -2 -10 -10 -22 -14 -26 -10 -4 4 -4 -1 0 -11 5 -12 4
-17 -3 -13 -5 4 -18 0 -28 -7 -13 -9 -15 -15 -6 -20 6 -4 14 0 17 8 3 9 10 14
15 11 10 -7 51 15 62 33 5 7 12 10 18 7 5 -4 9 -1 9 5 0 6 5 8 10 5 6 -3 10
-1 10 5 0 6 5 8 13 4 8 -5 8 -2 -2 9 -15 18 -26 23 -16 7z m-55 -44 c0 -2 -7
-7 -16 -10 -8 -3 -12 -2 -9 4 6 10 25 14 25 6z"/>
<path d="M2087 1093 c3 -7 9 -10 14 -7 5 3 9 0 9 -7 0 -7 2 -10 5 -7 9 9 -5
35 -19 35 -8 0 -12 -6 -9 -14z"/>
<path d="M2163 1055 c0 -8 4 -12 9 -9 4 3 8 0 8 -5 0 -6 6 -11 14 -11 8 0 21
-7 30 -15 9 -10 17 -11 21 -5 4 6 11 7 17 4 7 -5 8 -2 4 5 -5 7 -14 10 -22 7
-7 -3 -20 2 -29 10 -8 9 -15 12 -15 8 0 -4 -8 0 -18 9 -15 14 -19 15 -19 2z"/>
<path d="M2344 968 c-4 -5 -1 -14 7 -18 14 -9 29 -4 29 10 0 13 -29 20 -36 8z"/>
</g>
</svg>
