<?xml version="1.0" encoding="UTF-8" standalone="no"?>
<!-- Created with Inkscape (http://www.inkscape.org/) -->

<svg
   xmlns:dc="http://purl.org/dc/elements/1.1/"
   xmlns:cc="http://creativecommons.org/ns#"
   xmlns:rdf="http://www.w3.org/1999/02/22-rdf-syntax-ns#"
   xmlns:svg="http://www.w3.org/2000/svg"
   xmlns="http://www.w3.org/2000/svg"
   xmlns:sodipodi="http://sodipodi.sourceforge.net/DTD/sodipodi-0.dtd"
   xmlns:inkscape="http://www.inkscape.org/namespaces/inkscape"
   width="1000"
   height="1000"
   viewBox="0 0 210 297"
   version="1.1"
   id="svg8"
   inkscape:version="0.92.4 (5da689c313, 2019-01-14)"
   sodipodi:docname="philogram_Icon.svg">
  <defs
     id="defs2" />
  <sodipodi:namedview
     id="base"
     pagecolor="#ffffff"
     bordercolor="#666666"
     borderopacity="1.0"
     inkscape:pageopacity="0.0"
     inkscape:pageshadow="2"
     inkscape:zoom="0.98994949"
     inkscape:cx="331.39887"
     inkscape:cy="473.90652"
     inkscape:document-units="px"
     inkscape:current-layer="layer1"
     showgrid="false"
     inkscape:window-width="2475"
     inkscape:window-height="1411"
     inkscape:window-x="76"
     inkscape:window-y="-9"
     inkscape:window-maximized="1" />
  <metadata
     id="metadata5">
    <rdf:RDF>
      <cc:Work
         rdf:about="">
        <dc:format>image/svg+xml</dc:format>
        <dc:type
           rdf:resource="http://purl.org/dc/dcmitype/StillImage" />
        <dc:title></dc:title>
      </cc:Work>
    </rdf:RDF>
  </metadata>
  <g
     inkscape:label="Layer 1"
     inkscape:groupmode="layer"
     id="layer1">
    <path
       style="fill:#000000;fill-opacity:1;stroke:none;stroke-width:55.24732208;stroke-linejoin:round;stroke-miterlimit:4;stroke-dasharray:none;stroke-opacity:1"
       d="M 125 0 A 125 125 0 0 0 0 125 L 0 875 A 125 125 0 0 0 125 1000 L 875 1000 A 125 125 0 0 0 1000 875 L 1000 125 A 125 125 0 0 0 875 0 L 125 0 z M 218.75 125 L 250 125 L 750 125 L 781.25 125 A 93.75 93.75 0 0 1 875 218.75 L 875 250 L 875 750 L 875 781.25 A 93.75 93.75 0 0 1 781.25 875 L 750 875 L 250 875 L 218.75 875 A 93.75 93.75 0 0 1 125 781.25 L 125 750 L 125 250 L 125 218.75 A 93.75 93.75 0 0 1 218.75 125 z "
       transform="matrix(0.297,0,0,0.297,-43.5,0)"
       id="path817" />
    <path
       style="fill:#000000;fill-opacity:1;stroke:none;stroke-width:59.77717209;stroke-linejoin:round;stroke-miterlimit:4;stroke-dasharray:none;stroke-opacity:1"
       d="M 500 250 A 250 250 0 0 0 250 500 L 250 800 L 325 800 L 325 678.45508 A 250 250 0 0 0 500 750 A 250 250 0 0 0 750 500 A 250 250 0 0 0 500 250 z M 500 325 A 174.99999 174.99999 0 0 1 675 500 A 174.99999 174.99999 0 0 1 500 675 A 174.99999 174.99999 0 0 1 325 500 A 174.99999 174.99999 0 0 1 500 325 z "
       transform="matrix(0.297,0,0,0.297,-43.5,0)"
       id="path913" />
    <circle
       style="fill:#000000;fill-opacity:1;stroke:none;stroke-width:13.86767673;stroke-linejoin:round;stroke-miterlimit:4;stroke-dasharray:none;stroke-opacity:1"
       id="path949"
       cx="182.96249"
       cy="70.537498"
       r="18.5625" />
  </g>
</svg>
