<?xml version="1.0" encoding="UTF-8" standalone="no"?>
<!-- Created with Inkscape (http://www.inkscape.org/) -->

<svg
   xmlns:dc="http://purl.org/dc/elements/1.1/"
   xmlns:cc="http://creativecommons.org/ns#"
   xmlns:rdf="http://www.w3.org/1999/02/22-rdf-syntax-ns#"
   xmlns:svg="http://www.w3.org/2000/svg"
   xmlns="http://www.w3.org/2000/svg"
   xmlns:sodipodi="http://sodipodi.sourceforge.net/DTD/sodipodi-0.dtd"
   xmlns:inkscape="http://www.inkscape.org/namespaces/inkscape"
   width="1000"
   height="1000"
   viewBox="0 0 210 297"
   version="1.1"
   id="svg8"
   inkscape:version="0.92.4 (5da689c313, 2019-01-14)"
   sodipodi:docname="phillogram_logo-v2.svg">
  <defs
     id="defs2" />
  <sodipodi:namedview
     id="base"
     pagecolor="#ffffff"
     bordercolor="#666666"
     borderopacity="1.0"
     inkscape:pageopacity="0.0"
     inkscape:pageshadow="2"
     inkscape:zoom="0.98994949"
     inkscape:cx="32.393713"
     inkscape:cy="473.90652"
     inkscape:document-units="px"
     inkscape:current-layer="layer1"
     showgrid="false"
     inkscape:window-width="2475"
     inkscape:window-height="1411"
     inkscape:window-x="76"
     inkscape:window-y="-9"
     inkscape:window-maximized="1" />
  <metadata
     id="metadata5">
    <rdf:RDF>
      <cc:Work
         rdf:about="">
        <dc:format>image/svg+xml</dc:format>
        <dc:type
           rdf:resource="http://purl.org/dc/dcmitype/StillImage" />
        <dc:title />
      </cc:Work>
    </rdf:RDF>
  </metadata>
  <g
     inkscape:label="Layer 1"
     inkscape:groupmode="layer"
     id="layer1">
    <path
       style="fill:#6c6c6c;fill-opacity:1;stroke:none;stroke-width:59.77717209;stroke-linejoin:round;stroke-miterlimit:4;stroke-dasharray:none;stroke-opacity:1"
       d="M 500 250 C 361.92881 250 250 361.92881 250 500 L 250 627.25391 L 250 799.99023 L 250 800 L 325 800 L 325 799.99023 L 350 799.99023 L 350 699.91602 C 393.03114 732.22126 445.60635 749.98211 500 750 C 638.07119 750 750 638.07119 750 500 C 750 361.92881 638.07119 250 500 250 z M 500 350 A 150 150 0 0 1 650 500 A 150 150 0 0 1 500 650 A 150 150 0 0 1 350 500 A 150 150 0 0 1 500 350 z "
       transform="matrix(0.297,0,0,0.297,-43.5,0)"
       id="path913" />
    <circle
       style="fill:#6c6c6c;fill-opacity:1;stroke:none;stroke-width:16.64121246;stroke-linejoin:round;stroke-miterlimit:4;stroke-dasharray:none;stroke-opacity:1"
       id="path949"
       cx="182.22"
       cy="71.279999"
       r="22.275" />
    <path
       style="fill:#6c6c6c;fill-opacity:1;stroke-width:1.22092104"
       d="M 250 0 A 250 250 0 0 0 0 250 L 0 750 A 250 250 0 0 0 250 1000 L 750 1000 A 250 250 0 0 0 1000 750 L 1000 250 A 250 250 0 0 0 750 0 L 250 0 z M 250 100 L 449.61523 100 L 550.30469 100 L 750 100 A 150 150 0 0 1 900 250 L 900 449.61523 L 900 550.30469 L 900 750 A 150 150 0 0 1 750 900 L 550.38477 900 L 449.69531 900 L 250 900 A 150 150 0 0 1 100 750 L 100 550.38477 L 100 449.69531 L 100 250 A 150 150 0 0 1 250 100 z "
       transform="matrix(0.297,0,0,0.297,-43.5,0)"
       id="path829" />
  </g>
</svg>
